<?xml version="1.0" encoding="utf-8"?>
<!-- Generator: Adobe Illustrator 22.1.0, SVG Export Plug-In . SVG Version: 6.00 Build 0)  -->
<svg version="1.1" id="Layer_1" xmlns="http://www.w3.org/2000/svg" xmlns:xlink="http://www.w3.org/1999/xlink" x="0px" y="0px"
	 viewBox="0 0 32 32.7" style="enable-background:new 0 0 32 32.7;" xml:space="preserve">
<style type="text/css">
	.st0{display:none;opacity:0.6;}
</style>
<g id="P64Dth_1_" class="st0">
	
		<image style="display:inline;overflow:visible;" width="650" height="838" id="P64Dth" xlink:href="93B70E2D442B1144.jpg"  transform="matrix(0.7208 0 0 0.7208 -216 -161.6651)">
	</image>
</g>
<path d="M-109,138.3"/>
<path d="M-45,26.3"/>
<path d="M-46.4,39.6"/>
<polygon points="-31.5,51.3 -31.5,51.3 -31.5,51.3 "/>
<path d="M31.8,25.2C31.8,25.2,31.8,25.2,31.8,25.2C31.8,25.2,31.8,25.2,31.8,25.2L31.8,25.2L31.8,25.2c-0.6-0.1-1.1-0.3-1.5-0.6
	c-0.1-0.1-0.2-0.1-0.2-0.2c-1.1-0.4-2.3-0.6-3.5-0.6c-0.1,0-0.2,0-0.3,0c0,0,0,0,0,0c0,0,0,0,0,0c-0.1,0-0.2,0-0.3,0
	c-0.9,0-0.1-0.5,0.2-0.7c0,0,0.1,0,0.1-0.1c0,0,0,0,0,0l0,0c0.9-0.4,1.8-1.1,1.8-1.1l0,0c1.5-0.9,2.5-2.6,2.5-4.4c0-0.1,0-0.2,0-0.2
	c-0.3-0.4-0.5-0.8-0.5-1.3c0-0.2,0-0.3,0.1-0.5c0,0,0-0.1,0-0.1c0.5-0.9,0.8-1.9,0.8-3.1c0-0.8-0.2-1.6-0.5-2.4
	c-0.3-0.3-0.5-0.7-0.6-1.1c-0.3-0.5-0.7-0.9-1.1-1.3c-0.1,0-0.2,0-0.4,0.1c-0.6,0.3-1.2,0.5-1.9,0.5c-2.3,0.9-4.1,2.9-4.8,5.3
	c0,0,0,0,0,0c-0.2,0.5-0.7,0.1-0.8,0c0,0,0,0,0,0c0,0,0,0,0,0l0,0c-0.1-0.1-0.3-0.2-0.5-0.2c-0.2,0-0.4,0.1-0.6,0.2v0l0,0
	c0,0-0.1,0.1-0.1,0.1c-0.2,0.2-0.7,0.7-0.7,0.1c0,0,0,0,0,0c0-0.5,0-0.8,0-0.8l0,0c0.3-0.6,0.3-1.4,0.3-1.4c0.2-0.3,0.2-0.7,0.2-0.7
	C20.3,10,20,9.7,20,9.6c0,0,0,0,0,0c0.2-0.2,0.4-0.6,0.4-1c0-1.6-0.5-2.1-0.5-2.1c0-1.1-0.3-1.3-0.7-1.2c0,0,0,0,0,0
	C21.5,3,16,0,16,0s-5.5,3-3.3,5.2c0,0,0,0,0,0c-0.3-0.1-0.7,0.2-0.7,1.2c0,0-0.5,0.5-0.5,2.1c0,0.5,0.2,0.8,0.4,1c0,0,0,0,0,0
	c0,0.1-0.3,0.4,0.5,1.1c0,0,0,0.4,0.2,0.7c0,0,0,0.8,0.3,1.4l0,0c0,0,0,0.4,0,0.8c0,0,0,0,0,0c0,0.6-0.5,0.2-0.7-0.1
	c0,0-0.1-0.1-0.1-0.1l0,0v0c-0.1-0.1-0.4-0.2-0.6-0.2c-0.2,0-0.4,0.1-0.5,0.2l0,0c0,0,0,0,0,0c0,0,0,0,0,0c-0.1,0.1-0.6,0.5-0.8,0
	c0,0,0,0,0,0c-0.7-2.4-2.5-4.3-4.8-5.3C4.8,8.2,4.1,8,3.5,7.7c-0.1,0-0.2,0-0.4-0.1C2.8,8,2.4,8.4,2.1,8.9C2,9.3,1.8,9.7,1.5,10
	c-0.3,0.7-0.5,1.5-0.5,2.4c0,1.1,0.3,2.1,0.8,3.1c0,0,0,0.1,0,0.1c0,0.2,0.1,0.3,0.1,0.5c0,0.5-0.2,0.9-0.5,1.3c0,0.1,0,0.2,0,0.2
	c0,1.9,1,3.5,2.5,4.4l0,0c0,0,1,0.6,1.8,1.1l0,0c0,0,0,0,0,0c0,0,0.1,0,0.1,0.1c0.3,0.2,1.1,0.6,0.2,0.7c-0.1,0-0.2,0-0.3,0
	c0,0,0,0,0,0c0,0,0,0,0,0c-0.1,0-0.2,0-0.3,0c-1.2,0-2.4,0.3-3.5,0.6c-0.1,0.1-0.2,0.1-0.2,0.2c-0.4,0.3-0.9,0.5-1.4,0.6l-0.1,0l0,0
	c0,0,0,0,0,0c0,0,0,0,0,0c-0.1,0-0.2,0.1-0.2,0.2c0,0,0,0.1,0,0.1c0,0,0,0,0,0c0.1,0.2,0.2,0.5,0.2,0.8c0,0,0,0,0,0.1
	c0,0.1,0.1,0.2,0.1,0.2c0.2,0.3,0.4,0.6,0.5,1c1.6,3,4.8,5,8.4,5c2.7,0,5.1-1.1,6.8-2.9h0h0c1.7,1.8,4.1,2.9,6.8,2.9
	c3.6,0,6.8-2,8.4-5c0.1-0.4,0.2-0.7,0.5-1c0-0.1,0.1-0.2,0.1-0.2c0,0,0,0,0-0.1c0-0.3,0.1-0.6,0.2-0.8c0,0,0,0,0,0c0,0,0,0,0-0.1
	C32,25.3,31.9,25.3,31.8,25.2z M0.2,25.3L0.2,25.3C0.2,25.3,0.2,25.3,0.2,25.3C0.2,25.3,0.2,25.3,0.2,25.3z M16,13.8L16,13.8
	C16,13.8,16,13.8,16,13.8S16,13.8,16,13.8L16,13.8z M31.8,25.3C31.8,25.3,31.8,25.3,31.8,25.3C31.8,25.3,31.8,25.3,31.8,25.3
	L31.8,25.3z"/>
</svg>
